<svg width="3840" height="958" viewBox="0 0 3840 958" fill="none" xmlns="http://www.w3.org/2000/svg">
<mask id="mask0_4196_75" style="mask-type:alpha" maskUnits="userSpaceOnUse" x="0" y="0" width="3840" height="958">
<rect width="3840" height="958" fill="#D9D9D9"/>
</mask>
<g mask="url(#mask0_4196_75)">
<path fill-rule="evenodd" clip-rule="evenodd" d="M3840 0H0V958H3840V0ZM2695.52 313.623H2524.77V855.999H2695.52V313.623ZM2543.74 212.067C2561.6 229.923 2583.92 238.851 2610.7 238.851C2637.49 238.851 2659.44 229.923 2676.55 212.067C2693.66 193.467 2702.22 171.147 2702.22 145.107C2702.22 118.323 2693.66 96.0033 2676.55 78.1473C2659.44 60.2913 2637.49 51.3633 2610.7 51.3633C2583.92 51.3633 2561.6 60.2913 2543.74 78.1473C2526.63 96.0033 2518.08 118.323 2518.08 145.107C2518.08 171.147 2526.63 193.467 2543.74 212.067ZM2211.83 855.999V458.703H2089.07V313.623H2211.83V89.3073H2382.58V313.623H2505.34V458.703H2382.58V855.999H2211.83ZM178.749 831.447C224.133 855.999 274.725 868.275 330.525 868.275C374.421 868.275 414.225 860.835 449.937 845.955C485.649 830.331 517.641 807.639 545.913 777.879L437.661 668.511C425.013 682.647 409.761 693.807 391.905 701.991C374.793 709.431 355.077 713.151 332.757 713.151C308.949 713.151 287.373 707.571 268.029 696.411C248.685 685.251 233.433 669.999 222.273 650.655C211.857 631.311 206.649 608.991 206.649 583.695C206.649 558.399 211.857 536.451 222.273 517.851C233.433 498.507 248.313 483.627 266.913 473.211C286.257 462.051 308.205 456.471 332.757 456.471C354.333 456.471 373.305 459.819 389.673 466.515C406.785 473.211 421.665 483.627 434.313 497.763L543.681 388.395C516.153 359.379 484.533 337.803 448.821 323.667C413.853 308.787 375.165 301.347 332.757 301.347C276.213 301.347 225.249 313.623 179.865 338.175C134.481 362.727 98.3967 396.579 71.6127 439.731C45.5727 482.139 32.5527 530.499 32.5527 584.811C32.5527 638.379 45.5727 686.739 71.6127 729.891C97.6527 773.043 133.365 806.895 178.749 831.447ZM736.853 313.623H566.105V855.999H736.853V558.027C736.853 523.059 745.037 497.019 761.405 479.907C778.517 462.051 801.209 453.123 829.481 453.123C843.617 453.123 856.265 455.355 867.425 459.819C878.585 464.283 887.885 470.607 895.325 478.791L996.881 350.451C982.001 334.083 964.517 322.179 944.429 314.739C925.085 306.555 902.393 302.463 876.353 302.463C816.833 302.463 770.333 319.947 736.853 354.915V313.623ZM1239.15 868.275C1180.37 868.275 1127.92 856.371 1081.79 832.563C1036.41 808.011 1000.7 774.159 974.657 731.007C948.617 687.855 935.597 639.123 935.597 584.811C935.597 530.499 948.245 482.139 973.541 439.731C999.581 396.579 1034.55 362.727 1078.45 338.175C1122.34 313.623 1171.82 301.347 1226.87 301.347C1280.44 301.347 1327.69 312.879 1368.61 335.943C1409.53 359.007 1441.52 390.999 1464.58 431.919C1481.78 461.48 1492.77 494.146 1497.54 529.918C1502.62 497.344 1512.41 467.282 1526.91 439.731C1549.98 397.323 1580.85 363.843 1619.54 339.291C1658.97 314.739 1703.61 302.463 1753.46 302.463C1789.92 302.463 1822.65 309.531 1851.67 323.667C1871.18 332.935 1888.29 344.6 1903 358.664V313.623H2070.4V855.999H1903V812.043C1888.75 825.52 1872.01 836.824 1852.78 845.955C1823.02 860.091 1789.92 867.159 1753.46 867.159C1703.61 867.159 1658.97 854.883 1619.54 830.331C1580.85 805.779 1549.98 772.299 1526.91 729.891C1510.18 698.096 1499.72 662.956 1495.53 624.47C1494.69 629.55 1493.68 634.93 1492.48 640.611L1103.69 641.539C1106.18 650.289 1109.29 658.536 1113.04 666.279C1124.95 688.599 1141.31 706.083 1162.15 718.731C1183.72 730.635 1209.02 736.587 1238.03 736.587C1264.82 736.587 1289 732.123 1310.57 723.195C1332.15 713.523 1351.12 699.387 1367.49 680.787L1461.23 774.531C1434.45 805.779 1402.09 829.215 1364.14 844.839C1326.2 860.463 1284.53 868.275 1239.15 868.275ZM1111.93 502.227C1108.7 509.13 1105.98 516.496 1103.76 524.324L1340.83 523.655C1338.53 513.305 1335.51 503.93 1331.78 495.531C1322.85 474.699 1309.46 459.075 1291.6 448.659C1274.49 437.499 1253.29 431.919 1227.99 431.919C1201.21 431.919 1177.77 438.243 1157.68 450.891C1138.34 462.795 1123.09 479.907 1111.93 502.227ZM1876.22 677.439C1853.9 701.247 1824.51 713.151 1788.06 713.151C1764.99 713.151 1744.16 707.571 1725.56 696.411C1706.96 685.251 1692.45 669.999 1682.04 650.655C1671.62 631.311 1666.41 609.363 1666.41 584.811C1666.41 559.515 1671.62 537.195 1682.04 517.851C1693.2 498.507 1707.7 483.627 1725.56 473.211C1744.16 462.051 1765.36 456.471 1789.17 456.471C1812.98 456.471 1833.81 462.051 1851.67 473.211C1870.27 483.627 1884.4 498.507 1894.08 517.851C1904.49 537.195 1909.7 559.515 1909.7 584.811C1909.7 622.011 1898.54 652.887 1876.22 677.439ZM2700.81 313.623H2884.95L3001.02 649.38L3117.08 313.623H3297.87L3067.98 854.883L2930.71 855.999L2700.81 313.623ZM3398.8 832.563C3444.93 856.371 3497.38 868.275 3556.16 868.275C3601.54 868.275 3643.2 860.463 3681.15 844.839C3719.09 829.215 3751.46 805.779 3778.24 774.531L3684.5 680.787C3668.13 699.387 3649.16 713.523 3627.58 723.195C3606.01 732.123 3581.82 736.587 3555.04 736.587C3526.02 736.587 3500.73 730.635 3479.15 718.731C3458.32 706.083 3441.95 688.599 3430.05 666.279C3426.3 658.536 3423.18 650.289 3420.7 641.539L3809.49 640.611C3812.47 626.475 3814.33 614.199 3815.07 603.783C3816.56 592.623 3817.3 582.207 3817.3 572.535C3817.3 519.711 3805.4 472.839 3781.59 431.919C3758.53 390.999 3726.53 359.007 3685.61 335.943C3644.69 312.879 3597.45 301.347 3543.88 301.347C3488.83 301.347 3439.35 313.623 3395.45 338.175C3351.56 362.727 3316.59 396.579 3290.55 439.731C3265.25 482.139 3252.6 530.499 3252.6 584.811C3252.6 639.123 3265.62 687.855 3291.67 731.007C3317.71 774.159 3353.42 808.011 3398.8 832.563ZM3420.76 524.324C3422.99 516.496 3425.71 509.13 3428.93 502.227C3440.09 479.907 3455.34 462.795 3474.69 450.891C3494.78 438.243 3518.21 431.919 3545 431.919C3570.29 431.919 3591.5 437.499 3608.61 448.659C3626.46 459.075 3639.86 474.699 3648.78 495.531C3652.52 503.93 3655.54 513.305 3657.84 523.655L3420.76 524.324Z" fill="#030307"/>
</g>
</svg>
